<svg width="43" height="61" viewBox="0 0 43 61" fill="none" xmlns="http://www.w3.org/2000/svg">
<path d="M21.5 0H21.4683C15.8644 0 10.5618 2.19385 6.53521 6.18158C6.15475 6.55778 5.44931 7.34582 5.44931 7.34582C5.20756 7.62302 4.97373 7.90418 4.74783 8.19326C4.72009 8.2289 4.65668 8.31206 4.65668 8.31206C1.827 11.9394 0.19023 16.3667 0 21.0593V60.2278C0 60.3862 0.0475576 60.5367 0.130783 60.6594C0.269493 60.8654 0.507281 61 0.772811 61H8.08083C8.50885 61 8.85364 60.6555 8.85364 60.2278V40.2931C8.85364 40.1545 8.94876 40.0911 8.98839 40.0713C9.07558 40.0278 9.17465 40.0357 9.25392 40.0911C12.8524 42.6414 17.0771 43.968 21.4643 43.968C24.8132 43.968 27.9242 43.1918 30.7975 41.7821C38.0144 38.2418 43 30.7099 43 21.9741C43 9.82479 33.3735 0 21.5 0ZM21.4683 35.5688C14.2633 35.5688 8.40184 29.4783 8.40184 21.9939C8.40184 14.5095 14.2633 8.41898 21.4683 8.41898C28.6733 8.41898 34.5347 14.5095 34.5347 21.9939C34.5347 29.4783 28.6733 35.5688 21.4683 35.5688Z" fill="white"/>
</svg>
